<mxfile host="app.diagrams.net" agent="Mozilla/5.0 (Windows NT 10.0; Win64; x64) AppleWebKit/537.36 (KHTML, like Gecko) Chrome/140.0.0.0 Safari/537.36" version="28.2.3">
  <diagram name="Page-1" id="RhjmA6OBy8CS-5F4wgAC">
    <mxGraphModel dx="788" dy="518" grid="1" gridSize="10" guides="1" tooltips="1" connect="1" arrows="1" fold="1" page="1" pageScale="1" pageWidth="850" pageHeight="1100" math="0" shadow="0">
      <root>
        <mxCell id="0" />
        <mxCell id="1" parent="0" />
        <mxCell id="tZYwSCrGoD1mti8nqzn9-1" value="quản lý sinh viên" style="rounded=0;whiteSpace=wrap;html=1;" vertex="1" parent="1">
          <mxGeometry x="60" y="620" width="120" height="60" as="geometry" />
        </mxCell>
        <mxCell id="tZYwSCrGoD1mti8nqzn9-2" value="sinh viên" style="rounded=0;whiteSpace=wrap;html=1;" vertex="1" parent="1">
          <mxGeometry x="70" y="390" width="120" height="60" as="geometry" />
        </mxCell>
        <mxCell id="tZYwSCrGoD1mti8nqzn9-3" value="" style="endArrow=classic;html=1;rounded=0;entryX=0.5;entryY=0;entryDx=0;entryDy=0;exitX=0.5;exitY=1;exitDx=0;exitDy=0;" edge="1" parent="1" source="tZYwSCrGoD1mti8nqzn9-2" target="tZYwSCrGoD1mti8nqzn9-1">
          <mxGeometry width="50" height="50" relative="1" as="geometry">
            <mxPoint x="300" y="450" as="sourcePoint" />
            <mxPoint x="500" y="580" as="targetPoint" />
          </mxGeometry>
        </mxCell>
        <mxCell id="tZYwSCrGoD1mti8nqzn9-5" value="1" style="edgeLabel;html=1;align=center;verticalAlign=middle;resizable=0;points=[];" vertex="1" connectable="0" parent="tZYwSCrGoD1mti8nqzn9-3">
          <mxGeometry x="-0.0451" relative="1" as="geometry">
            <mxPoint y="1" as="offset" />
          </mxGeometry>
        </mxCell>
        <mxCell id="tZYwSCrGoD1mti8nqzn9-4" value="" style="endArrow=classic;html=1;rounded=0;exitX=0.75;exitY=0;exitDx=0;exitDy=0;entryX=0.75;entryY=1;entryDx=0;entryDy=0;" edge="1" parent="1" source="tZYwSCrGoD1mti8nqzn9-1" target="tZYwSCrGoD1mti8nqzn9-2">
          <mxGeometry width="50" height="50" relative="1" as="geometry">
            <mxPoint x="450" y="330" as="sourcePoint" />
            <mxPoint x="500" y="280" as="targetPoint" />
          </mxGeometry>
        </mxCell>
        <mxCell id="tZYwSCrGoD1mti8nqzn9-6" value="2" style="edgeLabel;html=1;align=center;verticalAlign=middle;resizable=0;points=[];" vertex="1" connectable="0" parent="tZYwSCrGoD1mti8nqzn9-4">
          <mxGeometry x="-0.0219" y="4" relative="1" as="geometry">
            <mxPoint as="offset" />
          </mxGeometry>
        </mxCell>
        <mxCell id="tZYwSCrGoD1mti8nqzn9-7" value="phòng đào tạo" style="rounded=0;whiteSpace=wrap;html=1;" vertex="1" parent="1">
          <mxGeometry x="200" y="510" width="90" height="40" as="geometry" />
        </mxCell>
        <mxCell id="tZYwSCrGoD1mti8nqzn9-8" value="đăng kí học phần" style="rounded=0;whiteSpace=wrap;html=1;" vertex="1" parent="1">
          <mxGeometry x="610" y="380" width="120" height="60" as="geometry" />
        </mxCell>
        <mxCell id="tZYwSCrGoD1mti8nqzn9-9" value="" style="endArrow=classic;html=1;rounded=0;exitX=1;exitY=0.75;exitDx=0;exitDy=0;entryX=0;entryY=0.5;entryDx=0;entryDy=0;" edge="1" parent="1" source="tZYwSCrGoD1mti8nqzn9-2" target="tZYwSCrGoD1mti8nqzn9-8">
          <mxGeometry width="50" height="50" relative="1" as="geometry">
            <mxPoint x="360" y="600" as="sourcePoint" />
            <mxPoint x="410" y="550" as="targetPoint" />
          </mxGeometry>
        </mxCell>
        <mxCell id="tZYwSCrGoD1mti8nqzn9-11" value="3" style="edgeLabel;html=1;align=center;verticalAlign=middle;resizable=0;points=[];" vertex="1" connectable="0" parent="tZYwSCrGoD1mti8nqzn9-9">
          <mxGeometry x="-0.3577" y="3" relative="1" as="geometry">
            <mxPoint as="offset" />
          </mxGeometry>
        </mxCell>
        <mxCell id="tZYwSCrGoD1mti8nqzn9-10" value="" style="endArrow=classic;html=1;rounded=0;exitX=0;exitY=0.25;exitDx=0;exitDy=0;entryX=1;entryY=0.25;entryDx=0;entryDy=0;" edge="1" parent="1" source="tZYwSCrGoD1mti8nqzn9-8" target="tZYwSCrGoD1mti8nqzn9-2">
          <mxGeometry width="50" height="50" relative="1" as="geometry">
            <mxPoint x="360" y="600" as="sourcePoint" />
            <mxPoint x="410" y="550" as="targetPoint" />
          </mxGeometry>
        </mxCell>
        <mxCell id="tZYwSCrGoD1mti8nqzn9-12" value="4" style="edgeLabel;html=1;align=center;verticalAlign=middle;resizable=0;points=[];" vertex="1" connectable="0" parent="tZYwSCrGoD1mti8nqzn9-10">
          <mxGeometry x="0.0677" y="-2" relative="1" as="geometry">
            <mxPoint as="offset" />
          </mxGeometry>
        </mxCell>
        <mxCell id="tZYwSCrGoD1mti8nqzn9-13" value="quản lý lớp học phần" style="rounded=0;whiteSpace=wrap;html=1;" vertex="1" parent="1">
          <mxGeometry x="670" y="620" width="120" height="60" as="geometry" />
        </mxCell>
        <mxCell id="tZYwSCrGoD1mti8nqzn9-14" value="quản lý học phần" style="rounded=0;whiteSpace=wrap;html=1;" vertex="1" parent="1">
          <mxGeometry x="520" y="620" width="120" height="60" as="geometry" />
        </mxCell>
        <mxCell id="tZYwSCrGoD1mti8nqzn9-15" value="" style="endArrow=classic;html=1;rounded=0;entryX=0.5;entryY=0;entryDx=0;entryDy=0;exitX=0.5;exitY=1;exitDx=0;exitDy=0;" edge="1" parent="1" source="tZYwSCrGoD1mti8nqzn9-8" target="tZYwSCrGoD1mti8nqzn9-14">
          <mxGeometry width="50" height="50" relative="1" as="geometry">
            <mxPoint x="360" y="600" as="sourcePoint" />
            <mxPoint x="410" y="550" as="targetPoint" />
            <Array as="points">
              <mxPoint x="610" y="530" />
            </Array>
          </mxGeometry>
        </mxCell>
        <mxCell id="tZYwSCrGoD1mti8nqzn9-16" value="5" style="edgeLabel;html=1;align=center;verticalAlign=middle;resizable=0;points=[];" vertex="1" connectable="0" parent="tZYwSCrGoD1mti8nqzn9-15">
          <mxGeometry x="-0.1934" y="1" relative="1" as="geometry">
            <mxPoint as="offset" />
          </mxGeometry>
        </mxCell>
        <mxCell id="tZYwSCrGoD1mti8nqzn9-17" value="" style="endArrow=classic;html=1;rounded=0;entryX=0.25;entryY=1;entryDx=0;entryDy=0;exitX=0.25;exitY=0;exitDx=0;exitDy=0;" edge="1" parent="1" source="tZYwSCrGoD1mti8nqzn9-14" target="tZYwSCrGoD1mti8nqzn9-8">
          <mxGeometry width="50" height="50" relative="1" as="geometry">
            <mxPoint x="460" y="620" as="sourcePoint" />
            <mxPoint x="510" y="570" as="targetPoint" />
          </mxGeometry>
        </mxCell>
        <mxCell id="tZYwSCrGoD1mti8nqzn9-19" value="6" style="edgeLabel;html=1;align=center;verticalAlign=middle;resizable=0;points=[];" vertex="1" connectable="0" parent="tZYwSCrGoD1mti8nqzn9-17">
          <mxGeometry x="-0.0804" y="1" relative="1" as="geometry">
            <mxPoint x="1" as="offset" />
          </mxGeometry>
        </mxCell>
        <mxCell id="tZYwSCrGoD1mti8nqzn9-20" value="" style="endArrow=classic;html=1;rounded=0;entryX=0.5;entryY=0;entryDx=0;entryDy=0;exitX=0.912;exitY=0.932;exitDx=0;exitDy=0;exitPerimeter=0;" edge="1" parent="1" source="tZYwSCrGoD1mti8nqzn9-8" target="tZYwSCrGoD1mti8nqzn9-13">
          <mxGeometry width="50" height="50" relative="1" as="geometry">
            <mxPoint x="750" y="550" as="sourcePoint" />
            <mxPoint x="410" y="550" as="targetPoint" />
            <Array as="points">
              <mxPoint x="720" y="520" />
            </Array>
          </mxGeometry>
        </mxCell>
        <mxCell id="tZYwSCrGoD1mti8nqzn9-21" value="7" style="edgeLabel;html=1;align=center;verticalAlign=middle;resizable=0;points=[];" vertex="1" connectable="0" parent="tZYwSCrGoD1mti8nqzn9-20">
          <mxGeometry x="0.2411" relative="1" as="geometry">
            <mxPoint as="offset" />
          </mxGeometry>
        </mxCell>
        <mxCell id="tZYwSCrGoD1mti8nqzn9-22" value="" style="endArrow=classic;html=1;rounded=0;exitX=1;exitY=0.5;exitDx=0;exitDy=0;entryX=1;entryY=0.5;entryDx=0;entryDy=0;" edge="1" parent="1" source="tZYwSCrGoD1mti8nqzn9-13" target="tZYwSCrGoD1mti8nqzn9-8">
          <mxGeometry width="50" height="50" relative="1" as="geometry">
            <mxPoint x="360" y="600" as="sourcePoint" />
            <mxPoint x="410" y="550" as="targetPoint" />
            <Array as="points">
              <mxPoint x="800" y="510" />
            </Array>
          </mxGeometry>
        </mxCell>
        <mxCell id="tZYwSCrGoD1mti8nqzn9-23" value="8" style="edgeLabel;html=1;align=center;verticalAlign=middle;resizable=0;points=[];" vertex="1" connectable="0" parent="tZYwSCrGoD1mti8nqzn9-22">
          <mxGeometry x="0.3147" y="-2" relative="1" as="geometry">
            <mxPoint y="-1" as="offset" />
          </mxGeometry>
        </mxCell>
        <mxCell id="tZYwSCrGoD1mti8nqzn9-24" value="quản lý giảng viên" style="rounded=0;whiteSpace=wrap;html=1;" vertex="1" parent="1">
          <mxGeometry x="280" y="720" width="120" height="60" as="geometry" />
        </mxCell>
        <mxCell id="tZYwSCrGoD1mti8nqzn9-25" value="giảng viên" style="rounded=0;whiteSpace=wrap;html=1;" vertex="1" parent="1">
          <mxGeometry x="280" y="840" width="120" height="60" as="geometry" />
        </mxCell>
        <mxCell id="tZYwSCrGoD1mti8nqzn9-26" value="" style="endArrow=classic;html=1;rounded=0;entryX=0.25;entryY=0;entryDx=0;entryDy=0;exitX=0.404;exitY=1.073;exitDx=0;exitDy=0;exitPerimeter=0;" edge="1" parent="1" source="tZYwSCrGoD1mti8nqzn9-24" target="tZYwSCrGoD1mti8nqzn9-25">
          <mxGeometry width="50" height="50" relative="1" as="geometry">
            <mxPoint x="360" y="600" as="sourcePoint" />
            <mxPoint x="410" y="550" as="targetPoint" />
          </mxGeometry>
        </mxCell>
        <mxCell id="tZYwSCrGoD1mti8nqzn9-28" value="10" style="edgeLabel;html=1;align=center;verticalAlign=middle;resizable=0;points=[];" vertex="1" connectable="0" parent="tZYwSCrGoD1mti8nqzn9-26">
          <mxGeometry x="-0.2969" y="-3" relative="1" as="geometry">
            <mxPoint y="1" as="offset" />
          </mxGeometry>
        </mxCell>
        <mxCell id="tZYwSCrGoD1mti8nqzn9-27" value="" style="endArrow=classic;html=1;rounded=0;exitX=0.5;exitY=0;exitDx=0;exitDy=0;entryX=0.75;entryY=1;entryDx=0;entryDy=0;" edge="1" parent="1" source="tZYwSCrGoD1mti8nqzn9-25" target="tZYwSCrGoD1mti8nqzn9-24">
          <mxGeometry width="50" height="50" relative="1" as="geometry">
            <mxPoint x="360" y="600" as="sourcePoint" />
            <mxPoint x="410" y="550" as="targetPoint" />
          </mxGeometry>
        </mxCell>
        <mxCell id="tZYwSCrGoD1mti8nqzn9-29" value="9" style="edgeLabel;html=1;align=center;verticalAlign=middle;resizable=0;points=[];" vertex="1" connectable="0" parent="tZYwSCrGoD1mti8nqzn9-27">
          <mxGeometry x="-0.1877" y="1" relative="1" as="geometry">
            <mxPoint y="1" as="offset" />
          </mxGeometry>
        </mxCell>
        <mxCell id="tZYwSCrGoD1mti8nqzn9-30" value="" style="endArrow=classic;html=1;rounded=0;exitX=1;exitY=0.5;exitDx=0;exitDy=0;entryX=0.5;entryY=1;entryDx=0;entryDy=0;" edge="1" parent="1" source="tZYwSCrGoD1mti8nqzn9-24" target="tZYwSCrGoD1mti8nqzn9-13">
          <mxGeometry width="50" height="50" relative="1" as="geometry">
            <mxPoint x="360" y="600" as="sourcePoint" />
            <mxPoint x="410" y="550" as="targetPoint" />
            <Array as="points">
              <mxPoint x="640" y="830" />
            </Array>
          </mxGeometry>
        </mxCell>
        <mxCell id="tZYwSCrGoD1mti8nqzn9-31" value="11" style="edgeLabel;html=1;align=center;verticalAlign=middle;resizable=0;points=[];" vertex="1" connectable="0" parent="tZYwSCrGoD1mti8nqzn9-30">
          <mxGeometry x="0.3706" y="2" relative="1" as="geometry">
            <mxPoint as="offset" />
          </mxGeometry>
        </mxCell>
        <mxCell id="tZYwSCrGoD1mti8nqzn9-32" value="" style="endArrow=classic;html=1;rounded=0;exitX=0.35;exitY=1.047;exitDx=0;exitDy=0;entryX=1;entryY=0.25;entryDx=0;entryDy=0;exitPerimeter=0;" edge="1" parent="1" source="tZYwSCrGoD1mti8nqzn9-13" target="tZYwSCrGoD1mti8nqzn9-24">
          <mxGeometry width="50" height="50" relative="1" as="geometry">
            <mxPoint x="360" y="600" as="sourcePoint" />
            <mxPoint x="410" y="550" as="targetPoint" />
            <Array as="points">
              <mxPoint x="610" y="780" />
            </Array>
          </mxGeometry>
        </mxCell>
        <mxCell id="tZYwSCrGoD1mti8nqzn9-33" value="12" style="edgeLabel;html=1;align=center;verticalAlign=middle;resizable=0;points=[];" vertex="1" connectable="0" parent="tZYwSCrGoD1mti8nqzn9-32">
          <mxGeometry x="0.1554" y="5" relative="1" as="geometry">
            <mxPoint x="1" as="offset" />
          </mxGeometry>
        </mxCell>
        <mxCell id="tZYwSCrGoD1mti8nqzn9-35" value="" style="endArrow=classic;html=1;rounded=0;exitX=1;exitY=0;exitDx=0;exitDy=0;entryX=0.5;entryY=1;entryDx=0;entryDy=0;" edge="1" parent="1" source="tZYwSCrGoD1mti8nqzn9-1" target="tZYwSCrGoD1mti8nqzn9-7">
          <mxGeometry width="50" height="50" relative="1" as="geometry">
            <mxPoint x="400" y="720" as="sourcePoint" />
            <mxPoint x="450" y="670" as="targetPoint" />
          </mxGeometry>
        </mxCell>
        <mxCell id="tZYwSCrGoD1mti8nqzn9-36" value="13" style="edgeLabel;html=1;align=center;verticalAlign=middle;resizable=0;points=[];" vertex="1" connectable="0" parent="tZYwSCrGoD1mti8nqzn9-35">
          <mxGeometry x="0.2058" relative="1" as="geometry">
            <mxPoint as="offset" />
          </mxGeometry>
        </mxCell>
        <mxCell id="tZYwSCrGoD1mti8nqzn9-37" value="" style="endArrow=classic;html=1;rounded=0;exitX=1;exitY=1;exitDx=0;exitDy=0;entryX=0;entryY=0.5;entryDx=0;entryDy=0;" edge="1" parent="1" source="tZYwSCrGoD1mti8nqzn9-7" target="tZYwSCrGoD1mti8nqzn9-14">
          <mxGeometry width="50" height="50" relative="1" as="geometry">
            <mxPoint x="400" y="720" as="sourcePoint" />
            <mxPoint x="450" y="670" as="targetPoint" />
          </mxGeometry>
        </mxCell>
        <mxCell id="tZYwSCrGoD1mti8nqzn9-38" value="14" style="edgeLabel;html=1;align=center;verticalAlign=middle;resizable=0;points=[];" vertex="1" connectable="0" parent="tZYwSCrGoD1mti8nqzn9-37">
          <mxGeometry x="-0.4295" y="-3" relative="1" as="geometry">
            <mxPoint as="offset" />
          </mxGeometry>
        </mxCell>
        <mxCell id="tZYwSCrGoD1mti8nqzn9-39" value="" style="endArrow=classic;html=1;rounded=0;exitX=0.75;exitY=1;exitDx=0;exitDy=0;entryX=0;entryY=1;entryDx=0;entryDy=0;" edge="1" parent="1" source="tZYwSCrGoD1mti8nqzn9-7" target="tZYwSCrGoD1mti8nqzn9-13">
          <mxGeometry width="50" height="50" relative="1" as="geometry">
            <mxPoint x="400" y="720" as="sourcePoint" />
            <mxPoint x="450" y="670" as="targetPoint" />
            <Array as="points">
              <mxPoint x="520" y="740" />
            </Array>
          </mxGeometry>
        </mxCell>
        <mxCell id="tZYwSCrGoD1mti8nqzn9-40" value="15" style="edgeLabel;html=1;align=center;verticalAlign=middle;resizable=0;points=[];" vertex="1" connectable="0" parent="tZYwSCrGoD1mti8nqzn9-39">
          <mxGeometry x="-0.0693" y="-3" relative="1" as="geometry">
            <mxPoint x="1" as="offset" />
          </mxGeometry>
        </mxCell>
        <mxCell id="tZYwSCrGoD1mti8nqzn9-41" value="" style="endArrow=classic;html=1;rounded=0;exitX=0.5;exitY=1;exitDx=0;exitDy=0;entryX=0.372;entryY=0.017;entryDx=0;entryDy=0;entryPerimeter=0;" edge="1" parent="1" source="tZYwSCrGoD1mti8nqzn9-7" target="tZYwSCrGoD1mti8nqzn9-24">
          <mxGeometry width="50" height="50" relative="1" as="geometry">
            <mxPoint x="380" y="630" as="sourcePoint" />
            <mxPoint x="430" y="580" as="targetPoint" />
          </mxGeometry>
        </mxCell>
        <mxCell id="tZYwSCrGoD1mti8nqzn9-42" value="16" style="edgeLabel;html=1;align=center;verticalAlign=middle;resizable=0;points=[];" vertex="1" connectable="0" parent="tZYwSCrGoD1mti8nqzn9-41">
          <mxGeometry x="0.2594" y="5" relative="1" as="geometry">
            <mxPoint as="offset" />
          </mxGeometry>
        </mxCell>
        <mxCell id="tZYwSCrGoD1mti8nqzn9-43" value="khoa bộ, môn" style="rounded=0;whiteSpace=wrap;html=1;" vertex="1" parent="1">
          <mxGeometry x="350" y="500" width="90" height="40" as="geometry" />
        </mxCell>
        <mxCell id="tZYwSCrGoD1mti8nqzn9-44" value="" style="endArrow=classic;html=1;rounded=0;exitX=0.75;exitY=1;exitDx=0;exitDy=0;entryX=0;entryY=0.25;entryDx=0;entryDy=0;" edge="1" parent="1" source="tZYwSCrGoD1mti8nqzn9-43" target="tZYwSCrGoD1mti8nqzn9-14">
          <mxGeometry width="50" height="50" relative="1" as="geometry">
            <mxPoint x="380" y="630" as="sourcePoint" />
            <mxPoint x="430" y="580" as="targetPoint" />
          </mxGeometry>
        </mxCell>
        <mxCell id="tZYwSCrGoD1mti8nqzn9-45" value="17" style="edgeLabel;html=1;align=center;verticalAlign=middle;resizable=0;points=[];" vertex="1" connectable="0" parent="tZYwSCrGoD1mti8nqzn9-44">
          <mxGeometry x="-0.0896" y="5" relative="1" as="geometry">
            <mxPoint as="offset" />
          </mxGeometry>
        </mxCell>
        <mxCell id="tZYwSCrGoD1mti8nqzn9-46" value="" style="endArrow=classic;html=1;rounded=0;exitX=0.5;exitY=1;exitDx=0;exitDy=0;entryX=0.75;entryY=0;entryDx=0;entryDy=0;" edge="1" parent="1" source="tZYwSCrGoD1mti8nqzn9-43" target="tZYwSCrGoD1mti8nqzn9-24">
          <mxGeometry width="50" height="50" relative="1" as="geometry">
            <mxPoint x="380" y="630" as="sourcePoint" />
            <mxPoint x="430" y="580" as="targetPoint" />
          </mxGeometry>
        </mxCell>
        <mxCell id="tZYwSCrGoD1mti8nqzn9-47" value="18" style="edgeLabel;html=1;align=center;verticalAlign=middle;resizable=0;points=[];" vertex="1" connectable="0" parent="tZYwSCrGoD1mti8nqzn9-46">
          <mxGeometry x="0.4338" y="-2" relative="1" as="geometry">
            <mxPoint y="-1" as="offset" />
          </mxGeometry>
        </mxCell>
        <mxCell id="tZYwSCrGoD1mti8nqzn9-48" value="1. Cập nhật thông tin sinh viên, xem trạng thái lớp học phần&lt;div&gt;2.Thông tin sinh viên đã được cập nhật&lt;/div&gt;&lt;div&gt;3. Đăng kí tín chỉ&lt;/div&gt;&lt;div&gt;4. hiển thị thông tin đăng kí môn&lt;/div&gt;&lt;div&gt;5.kiểm tra điều kiện đăng kí tín chỉ&lt;/div&gt;&lt;div&gt;6.thông tin lớp học phần&lt;/div&gt;&lt;div&gt;7.Yêu Cầu lớp, sỉ số, lịch học&lt;/div&gt;&lt;div&gt;8.thông tin lớp học phần&lt;/div&gt;&lt;div&gt;9 cập nhật lịch dạy, lịch nghỉ, bù&lt;/div&gt;&lt;div&gt;10.danh sách lớp được phân&lt;/div&gt;&lt;div&gt;11.phân công giảng viên&lt;/div&gt;&lt;div&gt;12. lịch giảng dạy&lt;/div&gt;&lt;div&gt;13. Cập nhật, quản lý thông tin sinh viên&lt;/div&gt;&lt;div&gt;&lt;span style=&quot;background-color: transparent; color: light-dark(rgb(0, 0, 0), rgb(255, 255, 255));&quot;&gt;14.&lt;/span&gt;&lt;span style=&quot;background-color: transparent; color: light-dark(rgb(0, 0, 0), rgb(255, 255, 255));&quot; data-end=&quot;642&quot; data-start=&quot;585&quot;&gt;tạo, chỉnh sửa, cập nhật và xóa thông tin các môn học&lt;/span&gt;&lt;span style=&quot;background-color: transparent; color: light-dark(rgb(0, 0, 0), rgb(255, 255, 255));&quot;&gt; trong hệ thống&lt;/span&gt;&lt;/div&gt;&lt;div&gt;&lt;span style=&quot;background-color: transparent; color: light-dark(rgb(0, 0, 0), rgb(255, 255, 255));&quot;&gt;15&amp;nbsp;&lt;/span&gt;&lt;span style=&quot;background-color: transparent; color: light-dark(rgb(0, 0, 0), rgb(255, 255, 255));&quot;&gt;quản lý lịch học thực tế của từng lớp học phần&lt;/span&gt;&lt;/div&gt;&lt;div&gt;&lt;span style=&quot;background-color: transparent; color: light-dark(rgb(0, 0, 0), rgb(255, 255, 255));&quot;&gt;16.&lt;/span&gt;&lt;span style=&quot;background-color: transparent; color: light-dark(rgb(0, 0, 0), rgb(255, 255, 255));&quot; data-end=&quot;648&quot; data-start=&quot;580&quot;&gt;cập nhật thông tin giảng viên, phân công giảng viên&lt;/span&gt;&lt;/div&gt;&lt;div&gt;&lt;span style=&quot;background-color: transparent; color: light-dark(rgb(0, 0, 0), rgb(255, 255, 255));&quot; data-end=&quot;648&quot; data-start=&quot;580&quot;&gt;17.Cung Cấp danh mục học phần&lt;/span&gt;&lt;/div&gt;&lt;div&gt;&lt;span style=&quot;background-color: transparent; color: light-dark(rgb(0, 0, 0), rgb(255, 255, 255));&quot; data-end=&quot;648&quot; data-start=&quot;580&quot;&gt;18. cung cấp danh sách giảng viên&lt;/span&gt;&lt;/div&gt;" style="text;html=1;align=left;verticalAlign=middle;whiteSpace=wrap;rounded=0;" vertex="1" parent="1">
          <mxGeometry x="90" y="960" width="700" height="290" as="geometry" />
        </mxCell>
      </root>
    </mxGraphModel>
  </diagram>
</mxfile>
